# xmcd
#
# Track frame offsets:
#	150
#	15505
#	31307
#	45347
#	64315
#	77529
#	101097
#	115306
#	126669
#	144939
#	159993
#	174434
#	187904
#
# Disc length: 2781 seconds
#
# Revision: 0
# Processed by: cddbd v1.5.2PL0 Copyright (c) Steve Scherf et al.
# Submitted via: audiograbber 1.83.01
#
DISCID=a10adb0d
DTITLE=George Thorogood and The Destroyers - 2120 South Michigan Avenue
DYEAR=2011
DGENRE=
TTITLE0=Going Back
TTITLE1=Hi-Heel Sneakers (Feat. Buddy Guy)
TTITLE2=Seventh Son
TTITLE3=Spoonful
TTITLE4=Let It Rock
TTITLE5=Two Trains Running (Still A Fool)
TTITLE6=Bo Diddley
TTITLE7=Mama Talk To Your Daughter
TTITLE8=Help Me
TTITLE9=My Babe (Feat. Charlie Musselwhite)
TTITLE10=Willie Dixon's Gone
TTITLE11=Chicago Bound
TTITLE12=2120 South Michigan Ave (Feat. Charlie Musselwhite)
EXTD=
EXTT0=
EXTT1=
EXTT2=
EXTT3=
EXTT4=
EXTT5=
EXTT6=
EXTT7=
EXTT8=
EXTT9=
EXTT10=
EXTT11=
EXTT12=
PLAYORDER=
